<svg t="1711782980538" class="icon" viewBox="0 0 1024 1024" version="1.1" xmlns="http://www.w3.org/2000/svg" p-id="7145" width="200" height="200"><path d="M808.569018 585.886255V805.329455H228.9664V585.886255h159.762618c2.234182 70.953891 60.937309 128 133.753018 128 72.825018 0 131.528145-57.046109 133.753019-128h152.333963z m14.866618-14.624582H640.633018c0 3.658473 0.744727 7.307636 0.744727 10.966109 0 64.372364-53.499345 117.033891-118.895709 117.033891-65.387055 0-118.8864-52.661527-118.8864-117.033891 0-3.658473 0-7.307636 0.744728-10.966109H214.109091V819.944727h609.326545V571.261673zM708.254255 348.16v131.667782H336.719127V348.16h371.535128z m14.857309-14.624582H321.852509v160.916946h401.259055V333.544727z" fill="#515151" p-id="7146"></path><path d="M327.763782 482.648436l-34.825309 95.939491 14.075345 5.129309 34.825309-95.9488-14.075345-5.12z m-4.449746-150.155636L215.877818 570.544873l14.820073 5.12 106.710109-240.2304-14.084655-2.923055z m400.151273 0l-11.859782 3.667782L809.425455 575.664873l14.075345-5.129309-100.035491-238.033455z m-1.489454 155.275636l-14.810764 4.393891 25.1904 84.964073 14.820073-3.658473-25.1904-85.699491z m90.40989-216.790109l12.60451-11.729454c42.235345-38.074182 35.560727-139.887709 34.816-140.613818v-2.206255l1.489454-1.461527c14.075345-9.5232 34.089891-41.751273 34.089891-41.751273L900.561455 65.163636l1.489454 8.787782C933.906618 228.491636 828.695273 264.378182 827.950545 265.122909l-15.5648 5.864727z m54.830546-150.881745c0.744727 13.917091 3.714327 88.622545-25.925818 131.099927 25.935127-15.378618 74.845091-59.326836 55.575272-166.260364-6.674618 10.258618-19.269818 27.098764-29.640145 35.160437zM706.429673 285.621527l-5.929891-4.393891 2.234182-2.196945c11.105745-14.652509 11.105745-49.068218 9.6256-61.523782l-1.489455-15.378618 8.154764 13.181673c17.780364 28.560291-2.960291 59.326836-10.370328 68.114618l-2.224872 2.196945zM121.018182 385.973527s41.499927 31.483345 68.9152 28.560291l-8.154764 32.954182c-0.744727 0.735418-48.900655-24.901818-60.760436-61.523782zM762.740364 996.072727a58.423855 58.423855 0 0 1-16.300219-2.196945c-19.269818-4.393891-30.384873-16.114036-34.834618-21.969455-17.780364 9.513891-35.560727 10.984727-54.085818 5.855418-53.359709-14.652509-90.409891-83.502545-91.890036-86.4256l-5.185164-8.787781 9.634909 3.658472c19.269818 8.061673 88.920436 5.864727 95.585746 5.129309 22.230109-7.326255 32.609745-16.104727 32.609745-16.104727l2.960291-2.941673 2.224873 3.667782c63.730036 103.265745 121.530182 90.084073 122.2656 90.084073l22.230109-5.864727-20.014546 12.455563c-23.700945 16.114036-45.931055 23.440291-65.200872 23.440291z m-48.909964-32.954182l2.234182 2.923055s10.361018 16.114036 31.855709 21.243345c18.525091 4.393891 40.010473 0 64.465454-12.455563-22.230109-2.196945-65.9456-16.849455-112.64-90.084073-5.175855 3.658473-15.546182 10.249309-31.855709 15.378618h-0.744727c-2.960291 0-61.505164 2.196945-89.655854-3.658472 11.115055 18.310982 42.970764 63.720727 82.990545 74.705454 17.780364 5.12 34.825309 2.932364 51.870255-7.326254l1.489454-0.735419z" fill="#515151" p-id="7147"></path></svg>