<svg class="icon" viewBox="0 0 1427 1024" version="1.1" xmlns="http://www.w3.org/2000/svg" p-id="9218"
     width="256" height="256">
    <path d="M545.993697 208.492606c0 6.826667 3.444364 12.986182 9.634909 16.399515 5.507879 3.413333 13.079273 3.413333 19.269818 0 5.492364-3.413333 9.619394-9.557333 9.619394-16.399515 0-10.255515-8.936727-19.145697-19.254303-19.145697-10.317576 0-19.269818 8.890182-19.269818 19.145697z m750.669576-28.020364c-15.142788 0-26.841212 12.303515-26.841212 27.337697 0 15.049697 11.698424 27.337697 26.841212 27.337697s26.841212-12.303515 26.841212-27.337697c0.682667-15.049697-11.698424-27.337697-26.841212-27.337697z m0 47.166061a20.635152 20.635152 0 0 1-20.635152-20.51103c0-11.636364 9.619394-20.51103 20.635152-20.511031 11.015758 0.682667 19.952485 9.572848 20.635151 20.511031 0 11.620848-8.936727 20.51103-20.635151 20.51103zM1048.963879 786.121697c-11.015758-33.512727-22.031515-65.629091-33.031758-99.126303a12642.878061 12642.878061 0 0 0-50.222545-149.02303c-3.444364-10.24-12.381091-17.082182-22.698667-17.082182H773.057939v-1.365334c0.682667-1.365333-0.698182-2.746182-2.063515-3.413333a5.616485 5.616485 0 0 0-7.571394 1.349818c-0.682667 0.698182-1.380848 2.063515-2.063515 2.746182H505.406061c-4.12703 0-8.952242-0.682667-13.079273 1.365333-7.571394 2.048-13.079273 8.207515-15.825455 15.716849h0.682667a8127.937939 8127.937939 0 0 0-46.08 138.084848l-33.729939 101.158788-0.682667 2.063515c-2.063515 6.144-4.12703 12.303515-3.444364 19.828364V995.29697c0 6.144 0 15.716848 7.571394 22.543515 5.507879 5.476848 13.761939 6.159515 19.952485 6.159515 0.682667 0 1.380848 0 1.380849-0.682667h604.113454c4.12703 0 12.381091-0.682667 18.571636-6.159515 4.12703-4.096 6.873212-10.24 6.873213-18.46303V799.806061c-1.365333-4.111515-1.365333-8.207515-2.746182-13.668849z m-15.142788 17.764848v195.49091c0 4.111515-1.365333 5.476848-1.365333 6.159515l-0.698182 0.682666a13.808485 13.808485 0 0 1-6.190546 1.380849H421.453576c-3.428848 0-8.254061 0.682667-9.619394-1.380849l-0.698182-0.682666c-2.063515-2.048-2.063515-6.144-2.063515-10.24V798.409697h-10.317576l10.317576-1.365333c-0.682667-4.096 1.380848-8.874667 2.746182-13.653334l0.698181-2.063515 33.714425-101.158788a8127.953455 8127.953455 0 0 0 46.095515-138.084848l-6.206061-2.063515 5.523394 1.380848c0.682667-2.063515 2.746182-4.111515 4.127031-4.111515 2.746182-0.682667 5.507879-0.682667 8.936727-0.682667h242.191515c-4.12703 4.794182-8.936727 9.572848-13.746424 14.351515-2.063515 2.063515-2.063515 4.794182 0 7.524849 2.063515 2.048 4.809697 2.048 7.555878 0 7.571394-6.826667 13.761939-14.351515 19.952485-21.876364h183.032243c2.746182 0 5.507879 2.048 6.190545 4.794182l50.222546 149.007515c11.015758 33.512727 22.031515 65.629091 33.031757 99.126303 0.682667 2.730667 0.682667 5.461333 0.682667 8.890182v5.461333z m-24.079515-16.399515H822.613333c-5.507879 0-13.079273 1.365333-18.587151 6.826667-6.190545 5.476848-6.190545 14.351515-6.873212 18.46303-0.682667 17.082182-7.571394 33.497212-18.571637 46.483394-13.079273 15.049697-32.349091 24.60703-52.28606 25.289697a74.891636 74.891636 0 0 1-47.476364-14.351515c-17.904485-12.303515-29.602909-34.179879-30.968242-56.056242-0.698182-4.778667-0.698182-14.351515-8.269576-20.511031-5.492364-4.778667-12.381091-6.144-17.88897-6.144H434.532848a9.076364 9.076364 0 0 0-8.952242 8.874667c0 4.794182 4.12703 8.890182 8.952242 8.890182h186.461091c3.444364 0.682667 5.507879 0.682667 6.206061 1.365333l0.667152 0.682667c1.396364 1.365333 2.063515 6.159515 2.063515 8.890182 1.396364 27.337697 15.142788 53.325576 37.856969 69.042424a90.220606 90.220606 0 0 0 53.666909 17.780363c2.063515 0 3.428848-0.682667 5.492364-0.682666a93.649455 93.649455 0 0 0 64.698182-30.766546c14.429091-15.716848 22.000485-36.227879 22.698667-56.738909 0.682667-1.365333 0.682667-5.461333 2.063515-6.826666l0.682666-0.698182c0.682667-0.682667 2.063515-1.365333 6.206061-1.365334H1009.726061c4.809697 0 8.952242-4.096 8.952242-8.890181 0-5.461333-4.12703-9.557333-8.952242-9.557334z m358.477576-357.515636s-13.761939 45.800727-40.587637 52.627394c0 0 33.714424 13.684364 40.587637 47.864242 0 0 4.809697-49.229576 44.730181-49.912242 0-0.682667-42.666667-23.241697-44.730181-50.579394zM577.644606 76.567273s4.12703-37.608727 33.714424-38.291394c0 0.682667-33.031758-17.082182-33.714424-38.275879 0 0-10.317576 35.545212-31.650909 40.339394 0 0 26.14303 10.24 31.650909 36.227879z m833.241212 278.202182s-4.809697 17.097697-15.142788 19.828363c0 0 12.381091 4.794182 15.142788 17.780364 0 0 2.063515-18.46303 16.508121-18.46303 0 0-15.825455-8.890182-16.508121-19.145697zM15.142788 403.393939S10.333091 420.476121 0 423.222303c0 0 12.381091 4.778667 15.142788 17.764849 0 0 2.063515-18.46303 16.508121-18.463031 0 0-15.825455-8.874667-16.508121-19.130182z m817.772606 66.218667c12.381091-6.144 24.762182-15.716848 37.158788-26.65503a7.354182 7.354182 0 0 0 2.063515-4.778667 7.012848 7.012848 0 0 0-3.444364-4.111515 12.815515 12.815515 0 0 0-4.809697 1.365333c-11.698424 10.255515-23.396848 18.46303-35.777939 25.289697-2.761697 1.380848-3.444364 4.111515-2.07903 6.842182 2.07903 2.048 4.809697 2.730667 6.888727 2.048z m-153.444849-56.738909c2.761697-0.682667 4.142545-3.413333 4.142546-6.144a24.948364 24.948364 0 0 1-0.698182-12.303515l4.809697-15.716849a41.735758 41.735758 0 0 1 8.269576-10.938181c2.063515-2.063515 2.063515-4.794182 0-7.524849-2.063515-2.048-4.809697-2.048-7.571394 0-13.079273 13.668848-18.571636 30.766545-15.142788 49.214061 0.698182 2.730667 3.444364 4.794182 6.206061 3.413333z m211.238788 10.938182a444.198788 444.198788 0 0 0 26.841212-32.116364c0.682667-1.365333 1.365333-2.746182 1.365334-3.413333-0.682667-2.063515-1.365333-2.746182-2.746182-3.413334-1.380848-0.698182-2.746182-1.380848-3.444364-1.380848-1.365333 0.682667-2.746182 0.682667-3.444363 2.048-8.936727 11.636364-17.190788 21.876364-26.143031 31.449212-2.063515 2.048-2.063515 4.778667 0.698182 7.509333 2.063515 1.380848 4.809697 1.380848 6.873212-0.682666z m-178.889697-68.344243c0.682667 0 1.380848 0 2.063516-0.698181 13.063758-6.144 28.889212-7.509333 41.968484-4.096 2.746182 0.682667 5.507879-0.682667 6.206061-3.413334 0.682667-2.730667-0.698182-5.476848-3.459879-6.159515-15.127273-4.096-33.016242-2.730667-48.841697 4.111515-2.063515 1.365333-3.444364 3.413333-2.761697 5.461334 0 2.730667 2.063515 4.794182 4.809697 4.794181z m82.556122 50.579394c0 2.048 1.396364 3.413333 2.761697 4.096 2.063515 0.682667 3.444364 0.682667 4.809697-0.682666a6.190545 6.190545 0 0 0 2.063515-4.778667c-2.746182-22.55903-11.015758-40.339394-24.079515-51.960242-2.063515-2.048-5.507879-1.365333-7.571394 0.682666-2.063515 2.063515-2.063515 4.794182 0.698181 7.524849 12.381091 10.24 19.254303 25.289697 21.317819 45.11806z m-65.349819 59.469576c-1.396364 2.730667-0.698182 5.461333 2.063516 6.826667a124.89697 124.89697 0 0 0 33.016242 10.953697h1.380848c2.746182 0 4.809697-2.063515 4.809697-4.794182 0.698182-2.730667-2.063515-4.778667-4.12703-5.461333-10.317576-1.365333-19.952485-4.794182-30.27006-9.572849-2.063515-1.365333-4.809697 0-6.873213 2.048z m74.984728-34.179879a3.785697 3.785697 0 0 0-3.428849-2.048c-2.761697-0.682667-5.507879 2.048-5.507879 4.778667a178.20703 178.20703 0 0 1-8.25406 38.974061c-2.063515 0-4.12703 0.682667-5.507879 0.682666a4.685576 4.685576 0 0 0-4.809697 4.778667c0 2.730667 2.063515 4.794182 4.809697 4.794182h2.063515c-2.063515 4.778667-4.12703 9.557333-6.888727 14.351515-1.365333 2.730667-0.682667 5.461333 2.07903 6.826667 2.746182 1.365333 5.492364 0.682667 6.873212-2.048 3.444364-6.144 6.206061-12.986182 8.936728-19.828364 4.142545-0.682667 8.952242-1.365333 12.396606-2.730667 2.746182-0.682667 4.12703-3.413333 3.428848-6.144-0.682667-2.746182-3.428848-4.111515-6.190545-3.413333-2.063515 0.667152-4.12703 1.365333-6.190546 1.365333 3.444364-11.636364 6.206061-23.939879 7.571394-36.92606 0-0.682667-0.682667-2.048-1.380848-3.413334z m-119.032243-6.144c-2.063515 1.365333-2.746182 4.778667-1.365333 7.509334a93.959758 93.959758 0 0 0 21.317818 22.55903l9.634909 7.524848c2.063515 2.048 5.507879 1.365333 7.571394-1.365333 2.063515-2.063515 1.380848-5.476848-1.380848-7.524848-3.428848-2.048-6.190545-4.778667-8.936728-7.524849-8.254061-6.826667-14.444606-13.653333-19.269818-21.178182-2.063515-1.380848-5.507879-2.063515-7.571394 0z m282.794667-123.050666c2.746182 1.365333 5.507879 0.682667 6.873212-2.048 11.698424-22.55903 18.587152-38.291394 18.587152-38.974061 1.380848-2.730667 0.682667-5.461333-2.761697-6.826667a4.406303 4.406303 0 0 0-4.127031 0 5.352727 5.352727 0 0 0-2.746182 2.730667s-6.206061 15.716848-18.571636 38.275879c-1.396364 2.063515 0 4.794182 2.746182 6.842182z m-37.85697 68.359757c2.07903 0 3.459879-0.682667 4.825212-2.730666 9.634909-13.684364 17.88897-28.035879 26.158546-42.387394 0.682667-1.365333 0.682667-2.730667 0.682666-4.096a14.925576 14.925576 0 0 0-2.063515-3.413334c-1.380848-0.698182-2.761697-0.698182-4.12703-0.698182-1.380848 0.682667-2.761697 1.365333-3.444364 2.730667a843.465697 843.465697 0 0 1-25.444848 41.704727 4.189091 4.189091 0 0 0-0.698182 4.778667c0.682667 3.413333 2.063515 4.111515 4.12703 4.111515z m87.396849-107.318303l-5.507879 64.930909 36.460606-47.848727-30.952727-17.082182z m-118.349576-69.725091l86.016 38.275879 139.667394-110.064485-106.651152 115.525818 106.651152 34.862546 59.174788-214.636606-284.858182 136.036848zM689.803636 600.188121c11.015758-7.524848 22.016-15.049697 32.333576-23.241697a6.190545 6.190545 0 0 0 2.063515-4.794182c-0.682667-2.048-1.380848-3.413333-3.444363-4.096-2.063515-0.682667-3.428848-0.682667-4.809697 0.682667a333.156848 333.156848 0 0 1-31.650909 22.55903c-2.746182 1.365333-3.444364 4.778667-1.380849 7.509334 0.698182 2.063515 4.12703 2.746182 6.888727 1.380848z m-17.888969 9.557334l-4.809697-8.874667c-22.031515 12.303515-37.85697 18.46303-37.85697 18.46303l3.444364 9.557334c1.380848-0.682667 17.206303-6.826667 39.222303-19.145697zM357.469091 287.107879s-10.317576 35.529697-31.650909 40.339394c0 0 26.14303 10.24 31.650909 36.212363 0 0 4.12703-37.593212 33.714424-38.275878 0 0-33.031758-17.097697-33.714424-38.275879zM1190.710303 641.861818s-4.809697 17.097697-15.142788 19.828364c0 0 12.381091 4.778667 15.142788 17.764848 0 0 2.063515-18.46303 16.508121-18.46303 0 0-15.825455-8.874667-16.508121-19.130182z"
          fill="#515151">
    </path>
</svg>